# AST/ASF file generated using VICON BodyLanguage
# -----------------------------------------------
:version 1.10
:name VICON
:units
  mass 1.0
  length 0.45
  angle deg
:documentation
   .ast/.asf automatically generated from VICON data using
   VICON BodyBuilder and BodyLanguage model FoxedUp or BRILLIANT.MOD
:root
   order TX TY TZ RX RY RZ
   axis XYZ
   position 0 0 0  
   orientation 0 0 0 
:bonedata
  begin
     id 1 
     name lhipjoint
     direction 0.661853 -0.702389 0.261917 
     length 2.64193 
     axis 0 0 0  XYZ
  end
  begin
     id 2 
     name lfemur
     direction 0.34202 -0.939693 0  
     length 7.01722  
     axis 0 0 20  XYZ
    dof rx ry rz
    limits (-160.0 20.0)
           (-70.0 70.0)
           (-60.0 70.0)
  end
  begin
     id 3 
     name ltibia
     direction 0.34202 -0.939693 0   
     length 8.25008   
     axis 0 0 20   XYZ
    dof rx
    limits (-10.0 170.0)
  end
  begin
     id 4 
     name lfoot
     direction 0.0709916 -0.195048 0.978221   
     length 2.31941   
     axis -90 7.62852e-016 20   XYZ
    dof rx rz
    limits (-45.0 90.0)
           (-70.0 20.0)
  end
  begin
     id 5 
     name ltoes
     direction 1.53586e-011 -4.22017e-011 1   
     length 1.16486   
     axis -90 7.62852e-016 20   XYZ
    dof rx
    limits (-90.0 20.0)
  end
  begin
     id 6 
     name rhipjoint
     direction -0.638185 -0.721362 0.268992   
     length 2.57244  
     axis 0 0 0  XYZ 
  end
  begin
     id 7 
     name rfemur
     direction -0.34202 -0.939693 0   
     length 7.07017   
     axis 0 0 -20   XYZ
    dof rx ry rz
    limits (-160.0 20.0)
           (-70.0 70.0)
           (-70.0 60.0)
  end
  begin
     id 8 
     name rtibia
     direction -0.34202 -0.939693 0   
     length 8.20386   
     axis 0 0 -20   XYZ
    dof rx
    limits (-10.0 170.0)
 end
 begin
     id 9 
     name rfoot
     direction -0.0822429 -0.225961 0.970658   
     length 2.32215  
     axis -90 -7.62852e-016 -20   XYZ
    dof rx rz
    limits (-45.0 90.0)
           (-20.0 70.0)
  end
  begin
     id 10 
     name rtoes
     direction -1.53597e-011 -4.21689e-011 1   
     length 1.16333   
     axis -90 -7.62852e-016 -20   XYZ
    dof rx
    limits (-90.0 20.0)
  end
  begin
     id 11 
     name lowerback
     direction -0.0131557 0.998589 -0.0514484   
     length 2.14993   
     axis 0 0 0   XYZ
    dof rx ry rz
    limits (-20.0 45.0)
           (-30.0 30.0)
           (-30.0 30.0)
  end
  begin
     id 12 
     name upperback
     direction -0.000776481 0.999993 0.00352685   
     length 2.15301   
     axis 0 0 0   XYZ
    dof rx ry rz
    limits (-20.0 45.0)
           (-30.0 30.0)
           (-30.0 30.0)
  end
  begin
     id 13 
     name thorax
     direction 0.00438186 0.999609 0.0276143   
     length 2.15424   
     axis 0 0 0   XYZ
    dof rx ry rz
    limits (-20.0 45.0)
           (-30.0 30.0)
           (-30.0 30.0)
  end
  begin
     id 14 
     name lowerneck
     direction -0.0488006 0.998094 0.0377807   
     length 1.90481   
     axis 0 0 0   XYZ
    dof rx ry rz
    limits (-20.0 45.0)
           (-30.0 30.0)
           (-30.0 30.0)
  end
  begin
     id 15 
     name upperneck
     direction 0.0443769 0.990702 -0.12861   
     length 1.91305   
     axis 0 0 0   XYZ
    dof rx ry rz
    limits (-20.0 45.0)
           (-30.0 30.0)
           (-30.0 30.0)
  end
  begin
     id 16
     name head
     direction 0.0165599 0.998647 -0.0492982  
     length 1.92369  
     axis 0 0 0   XYZ
    dof rx ry rz
    limits (-20.0 45.0)
           (-30.0 30.0)
           (-30.0 30.0)
  end
  begin
     id 17 
     name lclavicle
     direction 0.911936 0.410197 -0.0105506  
     length 3.52622  
     axis 0 0 0   XYZ
    dof ry rz
    limits (-20.0 10.0)
           (0.0 20.0)
  end
  begin
     id 18 
     name lhumerus
     direction 1 -4.48974e-011 -2.48591e-028   
     length 5.47651   
     axis 180 -30 -90   XYZ
    dof rx ry rz
    limits (-60.0 90.0)
           (-90.0 90.0)
           (-90.0 90.0)
  end
  begin
     id 19
     name lradius
     direction 1 -4.48938e-011 -4.40099e-027   
     length 3.09058   
     axis 180 -30 -90   XYZ
    dof rx
    limits (-10.0 170.0)
  end
  begin
     id 20
     name lwrist
     direction 1 -4.49042e-011 -2.99852e-027   
     length 1.54529   
     axis 1.95339e-015 90 90   XYZ
    dof ry
    limits (-180.0 0.0)
 end
  begin
     id 21 
     name lhand
     direction 1 -4.48815e-011 -5.98193e-027   
     length 0.771611   
     axis 3.82337e-015 90 90   XYZ
    dof rx rz
    limits (-90.0 90.0)
           (-45.0 45.0)
  end
  begin
     id 22 
     name lfingers
     direction 1 -4.49034e-011 -1.1993e-026   
     length 0.622093   
     axis 7.64668e-015 90 90   XYZ
    dof rx
    limits (0.0 90.0)
  end
  begin
     id 23
     name lthumb
     direction 0.707107 -6.34867e-011 0.707107   
     length 0.893204   
     axis -90 45 -1.62303e-014   XYZ
    dof rx rz
    limits (-45.0 45.0)
           (-45.0 45.0)
  end
  begin
     id 24 
     name rclavicle
     direction -0.93442 0.355634 -0.0195692   
     length 3.62463  
     axis 0 0 0   XYZ 
    dof ry rz
    limits (-10.0 20.0)
           (-20.0 0.0)
  end
  begin
     id 25 
     name rhumerus
     direction -1 -4.48957e-011 -1.19147e-027  
     length 5.14182   
     axis 180 30 90   XYZ
    dof rx ry rz
    limits (-90.0 60.0)
           (-90.0 90.0)
           (-90.0 90.0)
  end
  begin
     id 26 
     name rradius
     direction -1 -4.48952e-011 -3.81062e-027   
     length 3.35565   
     axis 180 30 90   XYZ
    dof rx
    limits (-10.0 170.0)
  end
  begin
     id 27 
     name rwrist
     direction -1 -4.48973e-011 -2.99621e-027   
     length 1.67782   
     axis 1.95339e-015 -90 -90   XYZ
    dof ry
    limits (-180.0 0.0)
  end
  begin
     id 28
     name rhand
     direction -1 -4.48895e-011 -5.98727e-027   
     length 0.801042   
     axis 3.82337e-015 -90 -90   XYZ
    dof rx rz
    limits (-90.0 90.0)
           (-45.0 45.0)
  end
  begin
     id 29
     name rfingers
     direction -1 -4.49065e-011 -1.19972e-026   
     length 0.645821   
     axis 7.64668e-015 -90 -90   XYZ
    dof rx
    limits (0.0 90.0)
  end
  begin
     id 30
     name rthumb
     direction -0.707107 -6.34957e-011 0.707107   
     length 0.927273   
     axis -90 -45 1.62303e-014   XYZ
    dof rx rz
    limits (-45.0 45.0)
           (-45.0 45.0)
  end
:hierarchy
  begin
    root lhipjoint rhipjoint lowerback
    lhipjoint lfemur
    lfemur ltibia
    ltibia lfoot
    lfoot ltoes
    rhipjoint rfemur
    rfemur rtibia
    rtibia rfoot
    rfoot rtoes
    lowerback upperback
    upperback thorax
    thorax lowerneck lclavicle rclavicle
    lowerneck upperneck
    upperneck head
    lclavicle lhumerus
    lhumerus lradius
    lradius lwrist
    lwrist lhand lthumb
    lhand lfingers
    rclavicle rhumerus
    rhumerus rradius
    rradius rwrist
    rwrist rhand rthumb
    rhand rfingers
  end

#!OML:ASF E:\Style4\Style4.ASF
:FULLY-SPECIFIED
:DEGREES
1
root -0.922992 18.15 -0.12334 1.82267 -2.13767 2.43545
lowerback 2.52453 1.91785 -2.56665
upperback 4.88812 2.524 1.0934
thorax 3.4616 1.14864 2.57385
lowerneck 1.16757 -5.1772 -6.20965
upperneck 16.1933 -6.97648 1.61125
head 4.96129 -3.67278 1.23289
rclavicle -7.95139e-016 -7.15625e-015
rhumerus -43.5209 11.4982 -83.3374
rradius 88.5972
rwrist 19.6687
rhand 9.06626 10.1672
rfingers 7.12502
rthumb 34.2402 -16.5629
lclavicle -7.95139e-016 -7.15625e-015
lhumerus -47.6231 -21.6896 93.0575
lradius 98.3876
lwrist 5.86052
lhand -3.83034 24.3574
lfingers 7.12502
lthumb 21.9169 53.136
rfemur -6.11637 1.12112 20.0572
rtibia 19.7099
rfoot -15.1192 -20.5391
rtoes -5.77117
lfemur -0.824192 -2.61921 -18.5951
ltibia 10.6276
lfoot -13.0628 19.7886
ltoes -16.4983
2
root -0.925864 18.1484 -0.122893 1.83633 -2.1111 2.48325
lowerback 2.50541 1.92042 -2.59579
upperback 4.89186 2.52826 1.08174
thorax 3.47539 1.14971 2.57895
lowerneck 1.13648 -5.18463 -6.26307
upperneck 16.2287 -6.98827 1.6503
head 4.98134 -3.67948 1.25155
rclavicle -1.63997e-014 -4.77083e-015
rhumerus -43.5868 11.5226 -83.3632
rradius 88.6684
rwrist 19.6152
rhand 9.0113 10.2272
rfingers 7.12502
rthumb 34.188 -16.5147
lclavicle -1.63997e-014 -4.77083e-015
lhumerus -47.6653 -21.7092 93.101
lradius 98.4042
lwrist 5.86129
lhand -3.88968 24.2195
lfingers 7.12502
lthumb 21.8599 53.0047
rfemur -6.15919 1.06846 20.0048
rtibia 19.7796
rfoot -15.1226 -20.5127
rtoes -5.84696
lfemur -0.859336 -2.65959 -18.6416
ltibia 10.6572
lfoot -13.0246 19.7373
ltoes -16.0998
3
root -0.929862 18.1447 -0.123833 1.85175 -2.10964 2.53402
lowerback 2.49237 1.95126 -2.62037
upperback 4.89242 2.5707 1.04612
thorax 3.48126 1.17064 2.55646
lowerneck 1.14589 -5.20213 -6.25263
upperneck 16.2368 -7.02235 1.71955
head 4.98547 -3.69176 1.26979
rclavicle -2.17669e-014 -7.15625e-015
rhumerus -43.6371 11.4342 -83.4163
rradius 88.7192
rwrist 19.5641
rhand 8.9683 10.3591
rfingers 7.12502
rthumb 34.1472 -16.3919
lclavicle -2.17669e-014 -7.15625e-015
lhumerus -47.6903 -21.8006 93.109
lradius 98.416
lwrist 5.85546
lhand -3.95822 24.0738
lfingers 7.12502
lthumb 21.7941 52.8667
rfemur -6.24256 1.09141 19.96
rtibia 19.8882
rfoot -15.1742 -20.5393
rtoes -5.88842
lfemur -0.875534 -2.66787 -18.6844
ltibia 10.6605
lfoot -12.9965 19.6789
ltoes -15.7186
4
root -0.931984 18.1441 -0.124411 1.86358 -2.09525 2.55713
lowerback 2.49561 1.97169 -2.58752
upperback 4.88529 2.59873 1.01438
thorax 3.47292 1.18665 2.50503
lowerneck 1.14794 -5.20179 -6.21598
upperneck 16.2512 -7.02664 1.74396
head 4.98904 -3.69045 1.27118
rclavicle -2.94201e-014 -1.27222e-014
rhumerus -43.6929 11.3584 -83.4787
rradius 88.7587
rwrist 19.586
rhand 8.8647 10.4131
rfingers 7.12502
rthumb 34.0488 -16.3598
lclavicle -2.94201e-014 -1.27222e-014
lhumerus -47.7317 -21.8686 93.0969
lradius 98.4372
lwrist 5.855
lhand -3.78586 23.9566
lfingers 7.12502
lthumb 21.9596 52.7301
rfemur -6.2889 0.983408 19.9369
rtibia 19.9602
rfoot -15.217 -20.4467
rtoes -5.98456
lfemur -0.897093 -2.72138 -18.7068
ltibia 10.6831
lfoot -13.0219 19.7942
ltoes -16.0832
5
root -0.93374 18.1446 -0.12608 1.86544 -2.05828 2.55908
lowerback 2.51811 1.96712 -2.57132
upperback 4.88899 2.5918 1.02556
thorax 3.46467 1.18366 2.50672
lowerneck 1.1197 -5.19333 -6.18606
upperneck 16.2692 -7.00673 1.68809
head 4.99551 -3.68189 1.2491
rclavicle 1.2921e-014 0
rhumerus -43.7502 11.3667 -83.4952
rradius 88.8351
rwrist 19.6286
rhand 8.81093 10.4449
rfingers 7.12502
rthumb 33.9977 -16.3394
lclavicle 1.2921e-014 0
lhumerus -47.7429 -21.8668 93.0999
lradius 98.4654
lwrist 5.94293
lhand -3.61591 23.8389
lfingers 7.12502
lthumb 22.1228 52.5933
rfemur -6.33828 0.858521 19.9434
rtibia 20.0432
rfoot -15.2505 -20.3901
rtoes -6.07718
lfemur -0.901283 -2.75132 -18.6991
ltibia 10.6565
lfoot -13.0158 19.8815
ltoes -16.4482
6
root -0.936785 18.1445 -0.130303 1.84328 -1.94978 2.56336
lowerback 2.58948 1.95378 -2.54737
upperback 4.89631 2.57232 1.02591
thorax 3.43423 1.17526 2.49112
lowerneck 1.15243 -5.20932 -6.11586
upperneck 16.2043 -7.02476 1.63675
head 4.96629 -3.68905 1.22292
rclavicle 2.05742e-014 1.03368e-014
rhumerus -43.7766 11.3284 -83.5115
rradius 88.9047
rwrist 19.6279
rhand 8.85053 10.4923
rfingers 7.12502
rthumb 34.0353 -16.2836
lclavicle 2.05742e-014 1.03368e-014
lhumerus -47.7307 -21.8954 93.1041
lradius 98.487
lwrist 6.00454
lhand -3.28767 24.0956
lfingers 7.12502
lthumb 22.4379 52.8123
rfemur -6.35352 0.836298 19.9556
rtibia 20.1054
rfoot -15.3617 -20.4483
rtoes -5.77252
lfemur -0.875513 -2.78834 -18.6873
ltibia 10.5863
lfoot -12.9164 19.7718
ltoes -16.1723
7
root -0.940952 18.1429 -0.134987 1.75249 -1.78292 2.69705
lowerback 2.73578 1.91711 -2.65344
upperback 4.92049 2.52035 0.995107
thorax 3.37759 1.147 2.51381
lowerneck 1.14703 -5.20286 -6.10345
upperneck 16.2016 -7.01685 1.64354
head 4.9657 -3.68397 1.22331
rclavicle -5.06901e-015 -1.35174e-014
rhumerus -43.8139 11.3533 -83.5484
rradius 88.9707
rwrist 19.6003
rhand 8.73762 10.4853
rfingers 7.12502
rthumb 33.9281 -16.3145
lclavicle -5.06901e-015 -1.35174e-014
lhumerus -47.7347 -21.9164 93.111
lradius 98.5292
lwrist 6.08579
lhand -2.94905 24.6589
lfingers 7.12502
lthumb 22.7629 53.336
rfemur -6.26351 0.729504 19.8253
rtibia 20.1226
rfoot -15.2798 -20.5228
rtoes -5.90771
lfemur -0.826109 -2.91293 -18.8225
ltibia 10.5924
lfoot -12.8962 19.6727
ltoes -15.8417
8
root -0.944643 18.1428 -0.137916 1.69157 -1.68113 2.77699
lowerback 2.8057 1.89265 -2.70207
upperback 4.95456 2.48625 0.984999
thorax 3.37454 1.12818 2.52894
lowerneck 1.14487 -5.18422 -6.12502
upperneck 16.2035 -6.98983 1.63895
head 4.96624 -3.67213 1.22657
rclavicle 7.25564e-015 3.33958e-014
rhumerus -43.8392 11.4118 -83.5694
rradius 89.0731
rwrist 19.5328
rhand 8.67272 10.4663
rfingers 7.12502
rthumb 33.8664 -16.347
lclavicle 7.25564e-015 3.33958e-014
lhumerus -47.7375 -21.8769 93.0943
lradius 98.5914
lwrist 6.12564
lhand -2.73646 24.7801
lfingers 7.12502
lthumb 22.9669 53.4319
rfemur -6.18982 0.716955 19.752
rtibia 20.1186
rfoot -15.2599 -20.5829
rtoes -5.73194
lfemur -0.830909 -3.01044 -18.8979
ltibia 10.6686
lfoot -12.8795 19.729
ltoes -16.4219
9
root -0.948027 18.1427 -0.142706 1.68911 -1.63284 2.6729
lowerback 2.83748 1.88488 -2.576
upperback 4.97541 2.47443 1.03716
thorax 3.38158 1.12532 2.51159
lowerneck 1.1691 -5.17925 -6.1915
upperneck 16.148 -6.98269 1.64881
head 4.94772 -3.67151 1.24192
rclavicle -7.15625e-015 7.95139e-015
rhumerus -43.8118 11.4897 -83.5494
rradius 89.1543
rwrist 19.4501
rhand 8.67136 10.4002
rfingers 7.12502
rthumb 33.8651 -16.4134
lclavicle -7.15625e-015 7.95139e-015
lhumerus -47.7288 -21.7964 93.1097
lradius 98.6452
lwrist 6.10383
lhand -2.90033 24.7664
lfingers 7.12502
lthumb 22.8096 53.4377
rfemur -6.18489 0.790954 19.8899
rtibia 20.1151
rfoot -15.3956 -20.6262
rtoes -5.39519
lfemur -0.892617 -2.94312 -18.7774
ltibia 10.7705
lfoot -12.6792 19.7915
ltoes -17.6317
10
root -0.954327 18.1421 -0.152058 1.66783 -1.56442 2.6051
lowerback 2.98573 1.86611 -2.50776
upperback 4.96258 2.4451 1.06739
thorax 3.28791 1.11421 2.49894
lowerneck 1.21663 -5.14965 -6.20425
upperneck 16.0843 -6.94349 1.64221
head 4.91874 -3.65322 1.24596
rclavicle 1.64991e-014 9.54166e-015
rhumerus -43.8217 11.532 -83.589
rradius 89.2119
rwrist 19.4175
rhand 8.73039 10.3685
rfingers 7.12502
rthumb 33.9212 -16.4327
lclavicle 1.64991e-014 9.54166e-015
lhumerus -47.7188 -21.7348 93.0923
lradius 98.672
lwrist 6.12715
lhand -3.00446 24.8329
lfingers 7.12502
lthumb 22.7097 53.5165
rfemur -6.18529 0.945894 20.0104
rtibia 20.108
rfoot -15.4854 -20.7879
rtoes -5.16188
lfemur -0.984585 -2.83334 -18.6798
ltibia 10.8909
lfoot -12.4041 19.7099
ltoes -18.4661
11
root -0.961437 18.1417 -0.158716 1.70285 -1.54813 2.53518
lowerback 3.06541 1.87497 -2.45053
upperback 4.91898 2.4543 1.09788
thorax 3.198 1.12217 2.49431
lowerneck 1.33904 -5.12486 -6.22347
upperneck 15.9773 -6.9168 1.65109
head 4.86521 -3.64069 1.25786
rclavicle -4.96962e-015 7.95139e-015
rhumerus -43.9146 11.5407 -83.6282
rradius 89.324
rwrist 19.3152
rhand 8.90254 10.3425
rfingers 7.12502
rthumb 34.0847 -16.4225
lclavicle -4.96962e-015 7.95139e-015
lhumerus -47.7723 -21.6608 93.0803
lradius 98.7105
lwrist 6.16885
lhand -2.88188 24.6726
lfingers 7.12502
lthumb 22.8273 53.3417
rfemur -6.25433 1.09682 20.1282
rtibia 20.099
rfoot -15.5183 -20.9168
rtoes -4.85083
lfemur -1.11827 -2.81105 -18.5639
ltibia 10.9922
lfoot -12.4149 19.6339
ltoes -18.3599
12
root -0.963803 18.1425 -0.15799 1.77571 -1.57086 2.58934
lowerback 2.9757 1.89429 -2.4609
upperback 4.9145 2.48252 1.08196
thorax 3.2423 1.13552 2.4867
lowerneck 1.28115 -5.12555 -6.26656
upperneck 16.0337 -6.91629 1.67509
head 4.89471 -3.64155 1.26983
rclavicle -1.63003e-014 -7.15625e-015
rhumerus -43.9407 11.5906 -83.6393
rradius 89.4301
rwrist 19.1432
rhand 9.05698 10.2223
rfingers 7.12502
rthumb 34.2314 -16.5098
lclavicle -1.63003e-014 -7.15625e-015
lhumerus -47.803 -21.4349 93.0331
lradius 98.7367
lwrist 6.06655
lhand -2.81454 23.8137
lfingers 7.12502
lthumb 22.8919 52.4748
rfemur -6.34214 1.07888 20.0653
rtibia 20.1053
rfoot -15.5198 -20.8636
rtoes -4.8801
lfemur -1.20316 -2.83472 -18.6186
ltibia 11.0052
lfoot -12.4853 19.7283
ltoes -18.5278
